HIERARCHY
ROOT Hips
{
	OFFSET 0.000000 0.000000 0.000000 
	CHANNELS 6 Xposition Yposition Zposition Yrotation Zrotation Xrotation 
	JOINT Lumbar
	{
		OFFSET 0.000000 0.000000 0.000000 
		CHANNELS 3 Zrotation Xrotation Yrotation
		JOINT Neck
		{
			OFFSET 0.000000 0.445665 0.000000 
			CHANNELS 3 Zrotation Xrotation Yrotation
			End Site
			{
				OFFSET 0.000000 0.227535 0.000000 
			}
		}
		JOINT RightShoulder
		{
			OFFSET 0.019635 0.377685 0.194865 
			CHANNELS 3 Zrotation Xrotation Yrotation
			JOINT RightElbow
			{
				OFFSET 0.000000 -0.243375 0.000000 
				CHANNELS 2 Zrotation Yrotation
				JOINT RightWrist
				{
					OFFSET 0.000000 -0.264825 0.000000 
					CHANNELS 2 Zrotation Xrotation
					End Site
					{
						OFFSET 0.006600 -0.176220 0.000990 
					}
				}
			}
		}
		JOINT LeftShoulder
		{
			OFFSET 0.019635 0.377685 -0.194865 
			CHANNELS 3 Zrotation Xrotation Yrotation
			JOINT LeftElbow
			{
				OFFSET 0.000000 -0.243375 0.000000 
				CHANNELS 2 Zrotation Yrotation
				JOINT LeftWrist
				{
					OFFSET 0.000000 -0.264825 0.000000 
					CHANNELS 2 Zrotation Xrotation
					End Site
					{
						OFFSET 0.006600 -0.176220 -0.000990 
					}
				}
			}
		}
	}
	JOINT RightHip
	{
		OFFSET 0.052140 -0.069960 0.075570 
		CHANNELS 3 Zrotation Xrotation Yrotation
		JOINT RightKnee
		{
			OFFSET 0.000000 -0.402270 0.000000 
			CHANNELS 1 Zrotation
			JOINT RightAnkle
			{
				OFFSET 0.000000 -0.404085 0.000000 
				CHANNELS 3 Zrotation Xrotation Yrotation
				End Site
				{
					OFFSET 0.204105 -0.089430 0.008415 
				}
			}
		}
	}
	JOINT LeftHip
	{
		OFFSET 0.052140 -0.069960 -0.075570 
		CHANNELS 3 Zrotation Xrotation Yrotation
		JOINT LeftKnee
		{
			OFFSET 0.000000 -0.402270 0.000000 
			CHANNELS 1 Zrotation
			JOINT LeftAnkle
			{
				OFFSET 0.000000 -0.404085 0.000000 
				CHANNELS 3 Zrotation Xrotation Yrotation
				End Site
				{
					OFFSET 0.204105 -0.089430 -0.008415 
				}
			}
		}
	}
}
MOTION
Frames: 19
Frame Time: 0.02
-0.00078 -5e-05 0.00023 20.77244 -35.36887 -5.20808 56.49304 1.35955 -0.25346 -11.28645 -1.46079 -0.40332 18.97933 -106.236 -90.01 5.32869 75.23213 -20.07628 0.15954 12.53346 115.90799 -218.40499 5.33354 -143.47499 51.89196 3.79836 48.98199 -2.84168 -7.58924 -18.98198 -7.63827 -4.29884 -2.97634 53.03955 6.58374 -2.85035 -23.97995 -9.20399 5.04615 3.47753
-0.00089 -0.0001 5e-05 20.76729 -35.37217 -5.20425 56.53413 1.35476 -0.19397 -11.27899 -1.43328 -0.40349 19.32522 -106.09718 -90.01015 5.32868 74.92027 -20.09463 -0.03886 12.39899 114.84374 -187.48998 5.33307 -134.0248 44.53562 3.15809 48.99282 -2.83244 -7.44528 -18.98119 -7.64507 -4.31101 -2.98289 53.0465 6.62657 -2.57717 -23.98335 -9.17615 5.02637 3.46222
-0.00101 -0.00015 -0.00014 20.76221 -35.3754 -5.20044 56.5751 1.34996 -0.13464 -11.27157 -1.40585 -0.40366 19.67031 -105.95871 -90.0103 5.32866 74.60943 -20.11291 -0.2367 12.26509 113.78268 -156.67174 5.3326 -124.60448 37.20233 2.51979 49.00356 -2.82323 -7.3017 -18.98041 -7.65185 -4.32316 -2.98942 53.05339 6.66935 -2.30429 -23.98675 -9.14834 5.00659 3.44693
-0.00112 -0.0002 -0.00033 20.7571 -35.37868 -5.19662 56.61607 1.34518 -0.07533 -11.26413 -1.37842 -0.40383 20.01519 -105.8203 -90.01045 5.32864 74.29854 -20.1312 -0.4345 12.13097 112.72167 -125.85077 5.33212 -115.18308 29.86836 1.88146 49.01435 -2.81402 -7.15817 -18.97962 -7.65863 -4.3353 -2.99594 53.06031 6.71206 -2.03186 -23.99015 -9.12058 4.98687 3.43167
-0.00124 -0.00025 -0.00051 20.7519 -35.38204 -5.19279 56.65716 1.34041 -0.01585 -11.25665 -1.35092 -0.40401 20.36073 -105.68156 -90.0106 5.32863 73.98663 -20.14955 -0.63284 11.9965 111.65757 -94.93644 5.33165 -105.73273 22.51216 1.24127 49.02524 -2.80477 -7.01429 -18.97882 -7.66542 -4.34747 -3.00248 53.06731 6.75478 -1.75933 -23.99354 -9.09281 4.96716 3.41641
-0.00135 -0.0003 -0.0007 20.74708 -35.385 -5.18901 56.69786 1.33557 0.04315 -11.24937 -1.32363 -0.40417 20.70483 -105.54367 -90.01074 5.32861 73.67805 -20.1677 -0.82963 11.86395 110.60299 -64.32416 5.33118 -96.37675 15.22798 0.60705 49.03565 -2.79567 -6.87135 -18.97808 -7.6722 -4.35958 -3.00899 53.07395 6.79771 -1.48576 -23.99695 -9.06491 4.94724 3.40105
-0.00147 -0.00036 -0.00088 20.74149 -35.38877 -5.18514 56.73931 1.33086 0.10304 -11.24166 -1.29595 -0.40435 21.05151 -105.40425 -90.01089 5.3286 73.36311 -20.18626 -1.02931 11.72698 109.5303 -33.12919 5.33068 -86.83859 7.80482 -0.03872 49.04702 -2.78628 -6.72671 -18.97722 -7.67899 -4.37178 -3.01555 53.08131 6.84016 -1.21457 -24.00031 -9.03731 4.92777 3.38591
-0.00158 -0.00041 -0.00107 20.73662 -35.39176 -5.18135 56.78004 1.32603 0.16211 -11.2344 -1.26863 -0.40451 21.39572 -105.26618 -90.01104 5.32858 73.05403 -20.20438 -1.22633 11.59539 108.47451 -2.48732 5.33026 -77.47317 0.51365 -0.67343 49.0575 -2.77714 -6.58358 -18.97647 -7.68578 -4.38391 -3.02207 53.088 6.88306 -0.94118 -24.00373 -9.00943 4.90787 3.37057
-0.0017 -0.00046 -0.00125 20.7326 -35.39392 -5.17766 56.82005 1.32106 0.22023 -11.22749 -1.24173 -0.40466 21.73743 -105.12994 -90.01118 5.32856 72.75199 -20.2222 -1.4202 11.46514 107.43815 27.55366 5.32972 -68.29626 -6.63438 -1.29651 49.06693 -2.76836 -6.44241 -18.97584 -7.69252 -4.39594 -3.02853 53.09391 6.92653 -0.66492 -24.0072 -8.9812 4.88748 3.35496
-0.00181 -0.00051 -0.00144 20.72362 -35.40124 -5.17341 56.86469 1.31693 0.28395 -11.21796 -1.21234 -0.40492 22.09514 -104.98369 -90.01136 5.32854 72.40908 -20.24245 -1.63249 11.31147 106.28628 61.27891 5.32922 -57.96638 -14.66094 -1.9922 49.08251 -2.75767 -6.2903 -18.97448 -7.69941 -4.40848 -3.0353 53.10443 6.96678 -0.40463 -24.01032 -8.95497 4.87002 3.34082
-0.00193 -0.00056 -0.00162 20.72514 -35.39744 -5.17033 56.89921 1.31101 0.33577 -11.21437 -1.18826 -0.40493 22.41801 -104.85827 -90.01145 5.32853 72.15266 -20.25713 -1.8057 11.21721 105.38057 87.08387 5.32907 -50.11336 -20.79835 -2.53103 49.08503 -2.75094 -6.1611 -18.97471 -7.70605 -4.41999 -3.04143 53.10512 7.01376 -0.11106 -24.01419 -8.92455 4.84635 3.32362
-0.00209 -0.0006 -0.00181 20.75539 -35.36489 -5.17054 56.90835 1.30029 0.35531 -11.22388 -1.17827 -0.40419 22.65486 -104.79198 -90.01132 5.32855 72.1357 -20.25897 -1.87295 11.24652 105.12601 92.22876 5.32827 -48.74098 -22.00931 -2.66538 49.05212 -2.75556 -6.09643 -18.97883 -7.71163 -4.42828 -3.0455 53.07975 7.0798 0.278 -24.02005 -8.88216 4.80562 3.29778
-0.00226 -0.00063 -0.00199 20.79616 -35.3209 -5.17192 56.90681 1.28773 0.36282 -11.24004 -1.17366 -0.40321 22.8559 -104.74571 -90.0111 5.32858 72.20654 -20.25404 -1.90101 11.37099 105.11577 89.27315 5.32943 -49.90186 -21.28591 -2.63733 49.00615 -2.76404 -6.0543 -18.98464 -7.71702 -4.43562 -3.04898 53.04448 7.15241 0.69936 -24.02669 -8.83569 4.75872 3.26893
-0.00243 -0.00067 -0.00217 20.83218 -35.28093 -5.17273 56.90866 1.27597 0.37557 -11.25509 -1.16691 -0.40238 23.06588 -104.68962 -90.01094 5.3286 72.23415 -20.25154 -1.94585 11.44175 105.01905 89.25747 5.32912 -50.1257 -21.2664 -2.66679 48.96567 -2.77045 -6.00094 -18.98995 -7.72271 -4.44364 -3.0529 53.01299 7.2217 1.10369 -24.03302 -8.79134 4.71461 3.24157
-0.00256 -0.00069 -0.00237 20.8682 -35.24569 -5.1737 56.91692 1.26444 0.38928 -11.26166 -1.15897 -0.40135 23.30287 -104.63874 -90.01072 5.32863 72.27055 -20.25473 -1.99385 11.44099 104.8495 92.14326 5.32596 -49.50137 -21.94017 -2.76511 48.92643 -2.77827 -5.95238 -18.99407 -7.72747 -4.45059 -3.05604 52.98398 7.29272 1.51947 -24.03911 -8.74568 4.67033 3.2136
-0.00279 -0.00074 -0.00252 20.90657 -35.19816 -5.1746 56.90897 1.2519 0.39812 -11.28803 -1.15468 -0.40072 23.47999 -104.57913 -90.01058 5.32864 72.31629 -20.24073 -2.02739 11.75702 104.85152 87.33161 5.33587 -51.18011 -20.76462 -2.68102 48.88225 -2.78397 -5.89844 -19.00117 -7.73416 -4.45957 -3.0607 52.94815 7.36128 1.91725 -24.04593 -8.702 4.62519 3.1863
-0.00322 -0.00083 -0.00252 20.95007 -35.11734 -5.17517 56.8614 1.2379 0.39655 -11.3628 -1.16001 -0.40082 23.47088 -104.51213 -90.01071 5.32863 72.30536 -20.20925 -2.01884 11.63322 105.60706 60.95156 5.32069 -59.14745 -14.49814 -2.13971 48.82164 -2.78382 -5.83109 -19.01534 -7.74582 -4.47406 -3.06946 52.89035 7.42492 2.27279 -24.0542 -8.66313 4.57723 3.16056
-0.00376 -0.00094 -0.00247 20.99535 -35.02501 -5.1756 56.79714 1.22277 0.39051 -11.45819 -1.16865 -0.40141 23.41658 -104.43104 -90.01092 5.3286 72.31065 -20.15283 -1.99951 12.03206 106.47361 27.50683 5.32741 -69.24745 -6.51796 -1.42086 48.75781 -2.78133 -5.75685 -19.03266 -7.75948 -4.49063 -3.07977 52.82725 7.48521 2.60624 -24.06326 -8.6267 4.52899 3.1358
-0.00427 -0.00105 -0.00243 21.03903 -34.93933 -5.17601 56.73926 1.20758 0.38643 -11.54712 -1.17528 -0.40203 23.39193 -104.34294 -90.01106 5.32858 72.35041 -20.09254 -1.99253 13.08158 107.05359 -1.1588 5.36713 -78.00304 0.36999 -0.77681 48.69911 -2.77916 -5.68045 -19.04896 -7.77257 -4.50651 -3.08955 52.76999 7.54474 2.93973 -24.07214 -8.59024 4.48216 3.11125
